# xmcd
#
# Track frame offsets:
#	150
#	16950
#	31534
#	42971
#	57153
#	74211
#	88726
#	104624
#	119486
#	135629
#	152589
#	163832
#
# Disc length: 2409 seconds
#
# Revision: 0
# Processed by: cddbd v1.5.2PL0 Copyright (c) Steve Scherf et al.
# Submitted via: EasyCDDAExtractor 10.5.1.1
#
DISCID=a209670c
DTITLE=Willie Nelson - It's Magic (With Don Cherry)
DYEAR=2007
DGENRE=Country
TTITLE0=It's Magic
TTITLE1=What A Wonderful World
TTITLE2=Summer Wind
TTITLE3=By The Time I Get To Phoenix
TTITLE4=Green Green Grass Of Home
TTITLE5=Again
TTITLE6=Sweet Memories
TTITLE7=You've Changed
TTITLE8=After The Lovin
TTITLE9=Try To Remember
TTITLE10=Give Me The Simple Life
TTITLE11=Portrait Of My Love
EXTD=
EXTT0=
EXTT1=
EXTT2=
EXTT3=
EXTT4=
EXTT5=
EXTT6=
EXTT7=
EXTT8=
EXTT9=
EXTT10=
EXTT11=
PLAYORDER=
